<svg xmlns="http://www.w3.org/2000/svg" viewBox="0 0 400 400" width="400" height="400">
  <circle cx="10" cy="10" r="1" fill="#2F7F7F" fill-opacity="0.20"/>
  <circle cx="30" cy="10" r="1" fill="#2F7F7F" fill-opacity="0.08"/>
  <circle cx="50" cy="10" r="1" fill="#2F7F7F" fill-opacity="0.08"/>
  <circle cx="70" cy="10" r="1" fill="#2F7F7F" fill-opacity="0.08"/>
  <circle cx="90" cy="10" r="1" fill="#2F7F7F" fill-opacity="0.08"/>
  <circle cx="110" cy="10" r="1" fill="#2F7F7F" fill-opacity="0.08"/>
  <circle cx="130" cy="10" r="1" fill="#2F7F7F" fill-opacity="0.08"/>
  <circle cx="150" cy="10" r="1" fill="#2F7F7F" fill-opacity="0.20"/>
  <circle cx="170" cy="10" r="1" fill="#2F7F7F" fill-opacity="0.08"/>
  <circle cx="190" cy="10" r="1" fill="#2F7F7F" fill-opacity="0.08"/>
  <circle cx="210" cy="10" r="1" fill="#2F7F7F" fill-opacity="0.08"/>
  <circle cx="230" cy="10" r="1" fill="#2F7F7F" fill-opacity="0.08"/>
  <circle cx="250" cy="10" r="1" fill="#2F7F7F" fill-opacity="0.08"/>
  <circle cx="270" cy="10" r="1" fill="#2F7F7F" fill-opacity="0.08"/>
  <circle cx="290" cy="10" r="1" fill="#2F7F7F" fill-opacity="0.20"/>
  <circle cx="310" cy="10" r="1" fill="#2F7F7F" fill-opacity="0.08"/>
  <circle cx="330" cy="10" r="1" fill="#2F7F7F" fill-opacity="0.08"/>
  <circle cx="350" cy="10" r="1" fill="#2F7F7F" fill-opacity="0.08"/>
  <circle cx="370" cy="10" r="1" fill="#2F7F7F" fill-opacity="0.08"/>
  <circle cx="390" cy="10" r="1" fill="#2F7F7F" fill-opacity="0.08"/>
  <circle cx="10" cy="30" r="1" fill="#2F7F7F" fill-opacity="0.08"/>
  <circle cx="30" cy="30" r="1" fill="#2F7F7F" fill-opacity="0.20"/>
  <circle cx="50" cy="30" r="1" fill="#2F7F7F" fill-opacity="0.08"/>
  <circle cx="70" cy="30" r="1" fill="#2F7F7F" fill-opacity="0.08"/>
  <circle cx="90" cy="30" r="1" fill="#2F7F7F" fill-opacity="0.08"/>
  <circle cx="110" cy="30" r="1" fill="#2F7F7F" fill-opacity="0.08"/>
  <circle cx="130" cy="30" r="1" fill="#2F7F7F" fill-opacity="0.08"/>
  <circle cx="150" cy="30" r="1" fill="#2F7F7F" fill-opacity="0.08"/>
  <circle cx="170" cy="30" r="1" fill="#2F7F7F" fill-opacity="0.20"/>
  <circle cx="190" cy="30" r="1" fill="#2F7F7F" fill-opacity="0.08"/>
  <circle cx="210" cy="30" r="1" fill="#2F7F7F" fill-opacity="0.08"/>
  <circle cx="230" cy="30" r="1" fill="#2F7F7F" fill-opacity="0.08"/>
  <circle cx="250" cy="30" r="1" fill="#2F7F7F" fill-opacity="0.08"/>
  <circle cx="270" cy="30" r="1" fill="#2F7F7F" fill-opacity="0.08"/>
  <circle cx="290" cy="30" r="1" fill="#2F7F7F" fill-opacity="0.08"/>
  <circle cx="310" cy="30" r="1" fill="#2F7F7F" fill-opacity="0.20"/>
  <circle cx="330" cy="30" r="1" fill="#2F7F7F" fill-opacity="0.08"/>
  <circle cx="350" cy="30" r="1" fill="#2F7F7F" fill-opacity="0.08"/>
  <circle cx="370" cy="30" r="1" fill="#2F7F7F" fill-opacity="0.08"/>
  <circle cx="390" cy="30" r="1" fill="#2F7F7F" fill-opacity="0.08"/>
  <circle cx="10" cy="50" r="1" fill="#2F7F7F" fill-opacity="0.08"/>
  <circle cx="30" cy="50" r="1" fill="#2F7F7F" fill-opacity="0.08"/>
  <circle cx="50" cy="50" r="1" fill="#2F7F7F" fill-opacity="0.20"/>
  <circle cx="70" cy="50" r="1" fill="#2F7F7F" fill-opacity="0.08"/>
  <circle cx="90" cy="50" r="1" fill="#2F7F7F" fill-opacity="0.08"/>
  <circle cx="110" cy="50" r="1" fill="#2F7F7F" fill-opacity="0.08"/>
  <circle cx="130" cy="50" r="1" fill="#2F7F7F" fill-opacity="0.08"/>
  <circle cx="150" cy="50" r="1" fill="#2F7F7F" fill-opacity="0.08"/>
  <circle cx="170" cy="50" r="1" fill="#2F7F7F" fill-opacity="0.08"/>
  <circle cx="190" cy="50" r="1" fill="#2F7F7F" fill-opacity="0.20"/>
  <circle cx="210" cy="50" r="1" fill="#2F7F7F" fill-opacity="0.08"/>
  <circle cx="230" cy="50" r="1" fill="#2F7F7F" fill-opacity="0.08"/>
  <circle cx="250" cy="50" r="1" fill="#2F7F7F" fill-opacity="0.08"/>
  <circle cx="270" cy="50" r="1" fill="#2F7F7F" fill-opacity="0.08"/>
  <circle cx="290" cy="50" r="1" fill="#2F7F7F" fill-opacity="0.08"/>
  <circle cx="310" cy="50" r="1" fill="#2F7F7F" fill-opacity="0.08"/>
  <circle cx="330" cy="50" r="1" fill="#2F7F7F" fill-opacity="0.20"/>
  <circle cx="350" cy="50" r="1" fill="#2F7F7F" fill-opacity="0.08"/>
  <circle cx="370" cy="50" r="1" fill="#2F7F7F" fill-opacity="0.08"/>
  <circle cx="390" cy="50" r="1" fill="#2F7F7F" fill-opacity="0.08"/>
  <circle cx="10" cy="70" r="1" fill="#2F7F7F" fill-opacity="0.08"/>
  <circle cx="30" cy="70" r="1" fill="#2F7F7F" fill-opacity="0.08"/>
  <circle cx="50" cy="70" r="1" fill="#2F7F7F" fill-opacity="0.08"/>
  <circle cx="70" cy="70" r="1" fill="#2F7F7F" fill-opacity="0.20"/>
  <circle cx="90" cy="70" r="1" fill="#2F7F7F" fill-opacity="0.08"/>
  <circle cx="110" cy="70" r="1" fill="#2F7F7F" fill-opacity="0.08"/>
  <circle cx="130" cy="70" r="1" fill="#2F7F7F" fill-opacity="0.08"/>
  <circle cx="150" cy="70" r="1" fill="#2F7F7F" fill-opacity="0.08"/>
  <circle cx="170" cy="70" r="1" fill="#2F7F7F" fill-opacity="0.08"/>
  <circle cx="190" cy="70" r="1" fill="#2F7F7F" fill-opacity="0.08"/>
  <circle cx="210" cy="70" r="1" fill="#2F7F7F" fill-opacity="0.20"/>
  <circle cx="230" cy="70" r="1" fill="#2F7F7F" fill-opacity="0.08"/>
  <circle cx="250" cy="70" r="1" fill="#2F7F7F" fill-opacity="0.08"/>
  <circle cx="270" cy="70" r="1" fill="#2F7F7F" fill-opacity="0.08"/>
  <circle cx="290" cy="70" r="1" fill="#2F7F7F" fill-opacity="0.08"/>
  <circle cx="310" cy="70" r="1" fill="#2F7F7F" fill-opacity="0.08"/>
  <circle cx="330" cy="70" r="1" fill="#2F7F7F" fill-opacity="0.08"/>
  <circle cx="350" cy="70" r="1" fill="#2F7F7F" fill-opacity="0.20"/>
  <circle cx="370" cy="70" r="1" fill="#2F7F7F" fill-opacity="0.08"/>
  <circle cx="390" cy="70" r="1" fill="#2F7F7F" fill-opacity="0.08"/>
  <circle cx="10" cy="90" r="1" fill="#2F7F7F" fill-opacity="0.08"/>
  <circle cx="30" cy="90" r="1" fill="#2F7F7F" fill-opacity="0.08"/>
  <circle cx="50" cy="90" r="1" fill="#2F7F7F" fill-opacity="0.08"/>
  <circle cx="70" cy="90" r="1" fill="#2F7F7F" fill-opacity="0.08"/>
  <circle cx="90" cy="90" r="1" fill="#2F7F7F" fill-opacity="0.20"/>
  <circle cx="110" cy="90" r="1" fill="#2F7F7F" fill-opacity="0.08"/>
  <circle cx="130" cy="90" r="1" fill="#2F7F7F" fill-opacity="0.08"/>
  <circle cx="150" cy="90" r="1" fill="#2F7F7F" fill-opacity="0.08"/>
  <circle cx="170" cy="90" r="1" fill="#2F7F7F" fill-opacity="0.08"/>
  <circle cx="190" cy="90" r="1" fill="#2F7F7F" fill-opacity="0.08"/>
  <circle cx="210" cy="90" r="1" fill="#2F7F7F" fill-opacity="0.08"/>
  <circle cx="230" cy="90" r="1" fill="#2F7F7F" fill-opacity="0.20"/>
  <circle cx="250" cy="90" r="1" fill="#2F7F7F" fill-opacity="0.08"/>
  <circle cx="270" cy="90" r="1" fill="#2F7F7F" fill-opacity="0.08"/>
  <circle cx="290" cy="90" r="1" fill="#2F7F7F" fill-opacity="0.08"/>
  <circle cx="310" cy="90" r="1" fill="#2F7F7F" fill-opacity="0.08"/>
  <circle cx="330" cy="90" r="1" fill="#2F7F7F" fill-opacity="0.08"/>
  <circle cx="350" cy="90" r="1" fill="#2F7F7F" fill-opacity="0.08"/>
  <circle cx="370" cy="90" r="1" fill="#2F7F7F" fill-opacity="0.20"/>
  <circle cx="390" cy="90" r="1" fill="#2F7F7F" fill-opacity="0.08"/>
  <circle cx="10" cy="110" r="1" fill="#2F7F7F" fill-opacity="0.08"/>
  <circle cx="30" cy="110" r="1" fill="#2F7F7F" fill-opacity="0.08"/>
  <circle cx="50" cy="110" r="1" fill="#2F7F7F" fill-opacity="0.08"/>
  <circle cx="70" cy="110" r="1" fill="#2F7F7F" fill-opacity="0.08"/>
  <circle cx="90" cy="110" r="1" fill="#2F7F7F" fill-opacity="0.08"/>
  <circle cx="110" cy="110" r="1" fill="#2F7F7F" fill-opacity="0.20"/>
  <circle cx="130" cy="110" r="1" fill="#2F7F7F" fill-opacity="0.08"/>
  <circle cx="150" cy="110" r="1" fill="#2F7F7F" fill-opacity="0.08"/>
  <circle cx="170" cy="110" r="1" fill="#2F7F7F" fill-opacity="0.08"/>
  <circle cx="190" cy="110" r="1" fill="#2F7F7F" fill-opacity="0.08"/>
  <circle cx="210" cy="110" r="1" fill="#2F7F7F" fill-opacity="0.08"/>
  <circle cx="230" cy="110" r="1" fill="#2F7F7F" fill-opacity="0.08"/>
  <circle cx="250" cy="110" r="1" fill="#2F7F7F" fill-opacity="0.20"/>
  <circle cx="270" cy="110" r="1" fill="#2F7F7F" fill-opacity="0.08"/>
  <circle cx="290" cy="110" r="1" fill="#2F7F7F" fill-opacity="0.08"/>
  <circle cx="310" cy="110" r="1" fill="#2F7F7F" fill-opacity="0.08"/>
  <circle cx="330" cy="110" r="1" fill="#2F7F7F" fill-opacity="0.08"/>
  <circle cx="350" cy="110" r="1" fill="#2F7F7F" fill-opacity="0.08"/>
  <circle cx="370" cy="110" r="1" fill="#2F7F7F" fill-opacity="0.08"/>
  <circle cx="390" cy="110" r="1" fill="#2F7F7F" fill-opacity="0.20"/>
  <circle cx="10" cy="130" r="1" fill="#2F7F7F" fill-opacity="0.08"/>
  <circle cx="30" cy="130" r="1" fill="#2F7F7F" fill-opacity="0.08"/>
  <circle cx="50" cy="130" r="1" fill="#2F7F7F" fill-opacity="0.08"/>
  <circle cx="70" cy="130" r="1" fill="#2F7F7F" fill-opacity="0.08"/>
  <circle cx="90" cy="130" r="1" fill="#2F7F7F" fill-opacity="0.08"/>
  <circle cx="110" cy="130" r="1" fill="#2F7F7F" fill-opacity="0.08"/>
  <circle cx="130" cy="130" r="1" fill="#2F7F7F" fill-opacity="0.20"/>
  <circle cx="150" cy="130" r="1" fill="#2F7F7F" fill-opacity="0.08"/>
  <circle cx="170" cy="130" r="1" fill="#2F7F7F" fill-opacity="0.08"/>
  <circle cx="190" cy="130" r="1" fill="#2F7F7F" fill-opacity="0.08"/>
  <circle cx="210" cy="130" r="1" fill="#2F7F7F" fill-opacity="0.08"/>
  <circle cx="230" cy="130" r="1" fill="#2F7F7F" fill-opacity="0.08"/>
  <circle cx="250" cy="130" r="1" fill="#2F7F7F" fill-opacity="0.08"/>
  <circle cx="270" cy="130" r="1" fill="#2F7F7F" fill-opacity="0.20"/>
  <circle cx="290" cy="130" r="1" fill="#2F7F7F" fill-opacity="0.08"/>
  <circle cx="310" cy="130" r="1" fill="#2F7F7F" fill-opacity="0.08"/>
  <circle cx="330" cy="130" r="1" fill="#2F7F7F" fill-opacity="0.08"/>
  <circle cx="350" cy="130" r="1" fill="#2F7F7F" fill-opacity="0.08"/>
  <circle cx="370" cy="130" r="1" fill="#2F7F7F" fill-opacity="0.08"/>
  <circle cx="390" cy="130" r="1" fill="#2F7F7F" fill-opacity="0.08"/>
  <circle cx="10" cy="150" r="1" fill="#2F7F7F" fill-opacity="0.20"/>
  <circle cx="30" cy="150" r="1" fill="#2F7F7F" fill-opacity="0.08"/>
  <circle cx="50" cy="150" r="1" fill="#2F7F7F" fill-opacity="0.08"/>
  <circle cx="70" cy="150" r="1" fill="#2F7F7F" fill-opacity="0.08"/>
  <circle cx="90" cy="150" r="1" fill="#2F7F7F" fill-opacity="0.08"/>
  <circle cx="110" cy="150" r="1" fill="#2F7F7F" fill-opacity="0.08"/>
  <circle cx="130" cy="150" r="1" fill="#2F7F7F" fill-opacity="0.08"/>
  <circle cx="150" cy="150" r="1" fill="#2F7F7F" fill-opacity="0.20"/>
  <circle cx="170" cy="150" r="1" fill="#2F7F7F" fill-opacity="0.08"/>
  <circle cx="190" cy="150" r="1" fill="#2F7F7F" fill-opacity="0.08"/>
  <circle cx="210" cy="150" r="1" fill="#2F7F7F" fill-opacity="0.08"/>
  <circle cx="230" cy="150" r="1" fill="#2F7F7F" fill-opacity="0.08"/>
  <circle cx="250" cy="150" r="1" fill="#2F7F7F" fill-opacity="0.08"/>
  <circle cx="270" cy="150" r="1" fill="#2F7F7F" fill-opacity="0.08"/>
  <circle cx="290" cy="150" r="1" fill="#2F7F7F" fill-opacity="0.20"/>
  <circle cx="310" cy="150" r="1" fill="#2F7F7F" fill-opacity="0.08"/>
  <circle cx="330" cy="150" r="1" fill="#2F7F7F" fill-opacity="0.08"/>
  <circle cx="350" cy="150" r="1" fill="#2F7F7F" fill-opacity="0.08"/>
  <circle cx="370" cy="150" r="1" fill="#2F7F7F" fill-opacity="0.08"/>
  <circle cx="390" cy="150" r="1" fill="#2F7F7F" fill-opacity="0.08"/>
  <circle cx="10" cy="170" r="1" fill="#2F7F7F" fill-opacity="0.08"/>
  <circle cx="30" cy="170" r="1" fill="#2F7F7F" fill-opacity="0.20"/>
  <circle cx="50" cy="170" r="1" fill="#2F7F7F" fill-opacity="0.08"/>
  <circle cx="70" cy="170" r="1" fill="#2F7F7F" fill-opacity="0.08"/>
  <circle cx="90" cy="170" r="1" fill="#2F7F7F" fill-opacity="0.08"/>
  <circle cx="110" cy="170" r="1" fill="#2F7F7F" fill-opacity="0.08"/>
  <circle cx="130" cy="170" r="1" fill="#2F7F7F" fill-opacity="0.08"/>
  <circle cx="150" cy="170" r="1" fill="#2F7F7F" fill-opacity="0.08"/>
  <circle cx="170" cy="170" r="1" fill="#2F7F7F" fill-opacity="0.20"/>
  <circle cx="190" cy="170" r="1" fill="#2F7F7F" fill-opacity="0.08"/>
  <circle cx="210" cy="170" r="1" fill="#2F7F7F" fill-opacity="0.08"/>
  <circle cx="230" cy="170" r="1" fill="#2F7F7F" fill-opacity="0.08"/>
  <circle cx="250" cy="170" r="1" fill="#2F7F7F" fill-opacity="0.08"/>
  <circle cx="270" cy="170" r="1" fill="#2F7F7F" fill-opacity="0.08"/>
  <circle cx="290" cy="170" r="1" fill="#2F7F7F" fill-opacity="0.08"/>
  <circle cx="310" cy="170" r="1" fill="#2F7F7F" fill-opacity="0.20"/>
  <circle cx="330" cy="170" r="1" fill="#2F7F7F" fill-opacity="0.08"/>
  <circle cx="350" cy="170" r="1" fill="#2F7F7F" fill-opacity="0.08"/>
  <circle cx="370" cy="170" r="1" fill="#2F7F7F" fill-opacity="0.08"/>
  <circle cx="390" cy="170" r="1" fill="#2F7F7F" fill-opacity="0.08"/>
  <circle cx="10" cy="190" r="1" fill="#2F7F7F" fill-opacity="0.08"/>
  <circle cx="30" cy="190" r="1" fill="#2F7F7F" fill-opacity="0.08"/>
  <circle cx="50" cy="190" r="1" fill="#2F7F7F" fill-opacity="0.20"/>
  <circle cx="70" cy="190" r="1" fill="#2F7F7F" fill-opacity="0.08"/>
  <circle cx="90" cy="190" r="1" fill="#2F7F7F" fill-opacity="0.08"/>
  <circle cx="110" cy="190" r="1" fill="#2F7F7F" fill-opacity="0.08"/>
  <circle cx="130" cy="190" r="1" fill="#2F7F7F" fill-opacity="0.08"/>
  <circle cx="150" cy="190" r="1" fill="#2F7F7F" fill-opacity="0.08"/>
  <circle cx="170" cy="190" r="1" fill="#2F7F7F" fill-opacity="0.08"/>
  <circle cx="190" cy="190" r="1" fill="#2F7F7F" fill-opacity="0.20"/>
  <circle cx="210" cy="190" r="1" fill="#2F7F7F" fill-opacity="0.08"/>
  <circle cx="230" cy="190" r="1" fill="#2F7F7F" fill-opacity="0.08"/>
  <circle cx="250" cy="190" r="1" fill="#2F7F7F" fill-opacity="0.08"/>
  <circle cx="270" cy="190" r="1" fill="#2F7F7F" fill-opacity="0.08"/>
  <circle cx="290" cy="190" r="1" fill="#2F7F7F" fill-opacity="0.08"/>
  <circle cx="310" cy="190" r="1" fill="#2F7F7F" fill-opacity="0.08"/>
  <circle cx="330" cy="190" r="1" fill="#2F7F7F" fill-opacity="0.20"/>
  <circle cx="350" cy="190" r="1" fill="#2F7F7F" fill-opacity="0.08"/>
  <circle cx="370" cy="190" r="1" fill="#2F7F7F" fill-opacity="0.08"/>
  <circle cx="390" cy="190" r="1" fill="#2F7F7F" fill-opacity="0.08"/>
  <circle cx="10" cy="210" r="1" fill="#2F7F7F" fill-opacity="0.08"/>
  <circle cx="30" cy="210" r="1" fill="#2F7F7F" fill-opacity="0.08"/>
  <circle cx="50" cy="210" r="1" fill="#2F7F7F" fill-opacity="0.08"/>
  <circle cx="70" cy="210" r="1" fill="#2F7F7F" fill-opacity="0.20"/>
  <circle cx="90" cy="210" r="1" fill="#2F7F7F" fill-opacity="0.08"/>
  <circle cx="110" cy="210" r="1" fill="#2F7F7F" fill-opacity="0.08"/>
  <circle cx="130" cy="210" r="1" fill="#2F7F7F" fill-opacity="0.08"/>
  <circle cx="150" cy="210" r="1" fill="#2F7F7F" fill-opacity="0.08"/>
  <circle cx="170" cy="210" r="1" fill="#2F7F7F" fill-opacity="0.08"/>
  <circle cx="190" cy="210" r="1" fill="#2F7F7F" fill-opacity="0.08"/>
  <circle cx="210" cy="210" r="1" fill="#2F7F7F" fill-opacity="0.20"/>
  <circle cx="230" cy="210" r="1" fill="#2F7F7F" fill-opacity="0.08"/>
  <circle cx="250" cy="210" r="1" fill="#2F7F7F" fill-opacity="0.08"/>
  <circle cx="270" cy="210" r="1" fill="#2F7F7F" fill-opacity="0.08"/>
  <circle cx="290" cy="210" r="1" fill="#2F7F7F" fill-opacity="0.08"/>
  <circle cx="310" cy="210" r="1" fill="#2F7F7F" fill-opacity="0.08"/>
  <circle cx="330" cy="210" r="1" fill="#2F7F7F" fill-opacity="0.08"/>
  <circle cx="350" cy="210" r="1" fill="#2F7F7F" fill-opacity="0.20"/>
  <circle cx="370" cy="210" r="1" fill="#2F7F7F" fill-opacity="0.08"/>
  <circle cx="390" cy="210" r="1" fill="#2F7F7F" fill-opacity="0.08"/>
  <circle cx="10" cy="230" r="1" fill="#2F7F7F" fill-opacity="0.08"/>
  <circle cx="30" cy="230" r="1" fill="#2F7F7F" fill-opacity="0.08"/>
  <circle cx="50" cy="230" r="1" fill="#2F7F7F" fill-opacity="0.08"/>
  <circle cx="70" cy="230" r="1" fill="#2F7F7F" fill-opacity="0.08"/>
  <circle cx="90" cy="230" r="1" fill="#2F7F7F" fill-opacity="0.20"/>
  <circle cx="110" cy="230" r="1" fill="#2F7F7F" fill-opacity="0.08"/>
  <circle cx="130" cy="230" r="1" fill="#2F7F7F" fill-opacity="0.08"/>
  <circle cx="150" cy="230" r="1" fill="#2F7F7F" fill-opacity="0.08"/>
  <circle cx="170" cy="230" r="1" fill="#2F7F7F" fill-opacity="0.08"/>
  <circle cx="190" cy="230" r="1" fill="#2F7F7F" fill-opacity="0.08"/>
  <circle cx="210" cy="230" r="1" fill="#2F7F7F" fill-opacity="0.08"/>
  <circle cx="230" cy="230" r="1" fill="#2F7F7F" fill-opacity="0.20"/>
  <circle cx="250" cy="230" r="1" fill="#2F7F7F" fill-opacity="0.08"/>
  <circle cx="270" cy="230" r="1" fill="#2F7F7F" fill-opacity="0.08"/>
  <circle cx="290" cy="230" r="1" fill="#2F7F7F" fill-opacity="0.08"/>
  <circle cx="310" cy="230" r="1" fill="#2F7F7F" fill-opacity="0.08"/>
  <circle cx="330" cy="230" r="1" fill="#2F7F7F" fill-opacity="0.08"/>
  <circle cx="350" cy="230" r="1" fill="#2F7F7F" fill-opacity="0.08"/>
  <circle cx="370" cy="230" r="1" fill="#2F7F7F" fill-opacity="0.20"/>
  <circle cx="390" cy="230" r="1" fill="#2F7F7F" fill-opacity="0.08"/>
  <circle cx="10" cy="250" r="1" fill="#2F7F7F" fill-opacity="0.08"/>
  <circle cx="30" cy="250" r="1" fill="#2F7F7F" fill-opacity="0.08"/>
  <circle cx="50" cy="250" r="1" fill="#2F7F7F" fill-opacity="0.08"/>
  <circle cx="70" cy="250" r="1" fill="#2F7F7F" fill-opacity="0.08"/>
  <circle cx="90" cy="250" r="1" fill="#2F7F7F" fill-opacity="0.08"/>
  <circle cx="110" cy="250" r="1" fill="#2F7F7F" fill-opacity="0.20"/>
  <circle cx="130" cy="250" r="1" fill="#2F7F7F" fill-opacity="0.08"/>
  <circle cx="150" cy="250" r="1" fill="#2F7F7F" fill-opacity="0.08"/>
  <circle cx="170" cy="250" r="1" fill="#2F7F7F" fill-opacity="0.08"/>
  <circle cx="190" cy="250" r="1" fill="#2F7F7F" fill-opacity="0.08"/>
  <circle cx="210" cy="250" r="1" fill="#2F7F7F" fill-opacity="0.08"/>
  <circle cx="230" cy="250" r="1" fill="#2F7F7F" fill-opacity="0.08"/>
  <circle cx="250" cy="250" r="1" fill="#2F7F7F" fill-opacity="0.20"/>
  <circle cx="270" cy="250" r="1" fill="#2F7F7F" fill-opacity="0.08"/>
  <circle cx="290" cy="250" r="1" fill="#2F7F7F" fill-opacity="0.08"/>
  <circle cx="310" cy="250" r="1" fill="#2F7F7F" fill-opacity="0.08"/>
  <circle cx="330" cy="250" r="1" fill="#2F7F7F" fill-opacity="0.08"/>
  <circle cx="350" cy="250" r="1" fill="#2F7F7F" fill-opacity="0.08"/>
  <circle cx="370" cy="250" r="1" fill="#2F7F7F" fill-opacity="0.08"/>
  <circle cx="390" cy="250" r="1" fill="#2F7F7F" fill-opacity="0.20"/>
  <circle cx="10" cy="270" r="1" fill="#2F7F7F" fill-opacity="0.08"/>
  <circle cx="30" cy="270" r="1" fill="#2F7F7F" fill-opacity="0.08"/>
  <circle cx="50" cy="270" r="1" fill="#2F7F7F" fill-opacity="0.08"/>
  <circle cx="70" cy="270" r="1" fill="#2F7F7F" fill-opacity="0.08"/>
  <circle cx="90" cy="270" r="1" fill="#2F7F7F" fill-opacity="0.08"/>
  <circle cx="110" cy="270" r="1" fill="#2F7F7F" fill-opacity="0.08"/>
  <circle cx="130" cy="270" r="1" fill="#2F7F7F" fill-opacity="0.20"/>
  <circle cx="150" cy="270" r="1" fill="#2F7F7F" fill-opacity="0.08"/>
  <circle cx="170" cy="270" r="1" fill="#2F7F7F" fill-opacity="0.08"/>
  <circle cx="190" cy="270" r="1" fill="#2F7F7F" fill-opacity="0.08"/>
  <circle cx="210" cy="270" r="1" fill="#2F7F7F" fill-opacity="0.08"/>
  <circle cx="230" cy="270" r="1" fill="#2F7F7F" fill-opacity="0.08"/>
  <circle cx="250" cy="270" r="1" fill="#2F7F7F" fill-opacity="0.08"/>
  <circle cx="270" cy="270" r="1" fill="#2F7F7F" fill-opacity="0.20"/>
  <circle cx="290" cy="270" r="1" fill="#2F7F7F" fill-opacity="0.08"/>
  <circle cx="310" cy="270" r="1" fill="#2F7F7F" fill-opacity="0.08"/>
  <circle cx="330" cy="270" r="1" fill="#2F7F7F" fill-opacity="0.08"/>
  <circle cx="350" cy="270" r="1" fill="#2F7F7F" fill-opacity="0.08"/>
  <circle cx="370" cy="270" r="1" fill="#2F7F7F" fill-opacity="0.08"/>
  <circle cx="390" cy="270" r="1" fill="#2F7F7F" fill-opacity="0.08"/>
  <circle cx="10" cy="290" r="1" fill="#2F7F7F" fill-opacity="0.20"/>
  <circle cx="30" cy="290" r="1" fill="#2F7F7F" fill-opacity="0.08"/>
  <circle cx="50" cy="290" r="1" fill="#2F7F7F" fill-opacity="0.08"/>
  <circle cx="70" cy="290" r="1" fill="#2F7F7F" fill-opacity="0.08"/>
  <circle cx="90" cy="290" r="1" fill="#2F7F7F" fill-opacity="0.08"/>
  <circle cx="110" cy="290" r="1" fill="#2F7F7F" fill-opacity="0.08"/>
  <circle cx="130" cy="290" r="1" fill="#2F7F7F" fill-opacity="0.08"/>
  <circle cx="150" cy="290" r="1" fill="#2F7F7F" fill-opacity="0.20"/>
  <circle cx="170" cy="290" r="1" fill="#2F7F7F" fill-opacity="0.08"/>
  <circle cx="190" cy="290" r="1" fill="#2F7F7F" fill-opacity="0.08"/>
  <circle cx="210" cy="290" r="1" fill="#2F7F7F" fill-opacity="0.08"/>
  <circle cx="230" cy="290" r="1" fill="#2F7F7F" fill-opacity="0.08"/>
  <circle cx="250" cy="290" r="1" fill="#2F7F7F" fill-opacity="0.08"/>
  <circle cx="270" cy="290" r="1" fill="#2F7F7F" fill-opacity="0.08"/>
  <circle cx="290" cy="290" r="1" fill="#2F7F7F" fill-opacity="0.20"/>
  <circle cx="310" cy="290" r="1" fill="#2F7F7F" fill-opacity="0.08"/>
  <circle cx="330" cy="290" r="1" fill="#2F7F7F" fill-opacity="0.08"/>
  <circle cx="350" cy="290" r="1" fill="#2F7F7F" fill-opacity="0.08"/>
  <circle cx="370" cy="290" r="1" fill="#2F7F7F" fill-opacity="0.08"/>
  <circle cx="390" cy="290" r="1" fill="#2F7F7F" fill-opacity="0.08"/>
  <circle cx="10" cy="310" r="1" fill="#2F7F7F" fill-opacity="0.08"/>
  <circle cx="30" cy="310" r="1" fill="#2F7F7F" fill-opacity="0.20"/>
  <circle cx="50" cy="310" r="1" fill="#2F7F7F" fill-opacity="0.08"/>
  <circle cx="70" cy="310" r="1" fill="#2F7F7F" fill-opacity="0.08"/>
  <circle cx="90" cy="310" r="1" fill="#2F7F7F" fill-opacity="0.08"/>
  <circle cx="110" cy="310" r="1" fill="#2F7F7F" fill-opacity="0.08"/>
  <circle cx="130" cy="310" r="1" fill="#2F7F7F" fill-opacity="0.08"/>
  <circle cx="150" cy="310" r="1" fill="#2F7F7F" fill-opacity="0.08"/>
  <circle cx="170" cy="310" r="1" fill="#2F7F7F" fill-opacity="0.20"/>
  <circle cx="190" cy="310" r="1" fill="#2F7F7F" fill-opacity="0.08"/>
  <circle cx="210" cy="310" r="1" fill="#2F7F7F" fill-opacity="0.08"/>
  <circle cx="230" cy="310" r="1" fill="#2F7F7F" fill-opacity="0.08"/>
  <circle cx="250" cy="310" r="1" fill="#2F7F7F" fill-opacity="0.08"/>
  <circle cx="270" cy="310" r="1" fill="#2F7F7F" fill-opacity="0.08"/>
  <circle cx="290" cy="310" r="1" fill="#2F7F7F" fill-opacity="0.08"/>
  <circle cx="310" cy="310" r="1" fill="#2F7F7F" fill-opacity="0.20"/>
  <circle cx="330" cy="310" r="1" fill="#2F7F7F" fill-opacity="0.08"/>
  <circle cx="350" cy="310" r="1" fill="#2F7F7F" fill-opacity="0.08"/>
  <circle cx="370" cy="310" r="1" fill="#2F7F7F" fill-opacity="0.08"/>
  <circle cx="390" cy="310" r="1" fill="#2F7F7F" fill-opacity="0.08"/>
  <circle cx="10" cy="330" r="1" fill="#2F7F7F" fill-opacity="0.08"/>
  <circle cx="30" cy="330" r="1" fill="#2F7F7F" fill-opacity="0.08"/>
  <circle cx="50" cy="330" r="1" fill="#2F7F7F" fill-opacity="0.20"/>
  <circle cx="70" cy="330" r="1" fill="#2F7F7F" fill-opacity="0.08"/>
  <circle cx="90" cy="330" r="1" fill="#2F7F7F" fill-opacity="0.08"/>
  <circle cx="110" cy="330" r="1" fill="#2F7F7F" fill-opacity="0.08"/>
  <circle cx="130" cy="330" r="1" fill="#2F7F7F" fill-opacity="0.08"/>
  <circle cx="150" cy="330" r="1" fill="#2F7F7F" fill-opacity="0.08"/>
  <circle cx="170" cy="330" r="1" fill="#2F7F7F" fill-opacity="0.08"/>
  <circle cx="190" cy="330" r="1" fill="#2F7F7F" fill-opacity="0.20"/>
  <circle cx="210" cy="330" r="1" fill="#2F7F7F" fill-opacity="0.08"/>
  <circle cx="230" cy="330" r="1" fill="#2F7F7F" fill-opacity="0.08"/>
  <circle cx="250" cy="330" r="1" fill="#2F7F7F" fill-opacity="0.08"/>
  <circle cx="270" cy="330" r="1" fill="#2F7F7F" fill-opacity="0.08"/>
  <circle cx="290" cy="330" r="1" fill="#2F7F7F" fill-opacity="0.08"/>
  <circle cx="310" cy="330" r="1" fill="#2F7F7F" fill-opacity="0.08"/>
  <circle cx="330" cy="330" r="1" fill="#2F7F7F" fill-opacity="0.20"/>
  <circle cx="350" cy="330" r="1" fill="#2F7F7F" fill-opacity="0.08"/>
  <circle cx="370" cy="330" r="1" fill="#2F7F7F" fill-opacity="0.08"/>
  <circle cx="390" cy="330" r="1" fill="#2F7F7F" fill-opacity="0.08"/>
  <circle cx="10" cy="350" r="1" fill="#2F7F7F" fill-opacity="0.08"/>
  <circle cx="30" cy="350" r="1" fill="#2F7F7F" fill-opacity="0.08"/>
  <circle cx="50" cy="350" r="1" fill="#2F7F7F" fill-opacity="0.08"/>
  <circle cx="70" cy="350" r="1" fill="#2F7F7F" fill-opacity="0.20"/>
  <circle cx="90" cy="350" r="1" fill="#2F7F7F" fill-opacity="0.08"/>
  <circle cx="110" cy="350" r="1" fill="#2F7F7F" fill-opacity="0.08"/>
  <circle cx="130" cy="350" r="1" fill="#2F7F7F" fill-opacity="0.08"/>
  <circle cx="150" cy="350" r="1" fill="#2F7F7F" fill-opacity="0.08"/>
  <circle cx="170" cy="350" r="1" fill="#2F7F7F" fill-opacity="0.08"/>
  <circle cx="190" cy="350" r="1" fill="#2F7F7F" fill-opacity="0.08"/>
  <circle cx="210" cy="350" r="1" fill="#2F7F7F" fill-opacity="0.20"/>
  <circle cx="230" cy="350" r="1" fill="#2F7F7F" fill-opacity="0.08"/>
  <circle cx="250" cy="350" r="1" fill="#2F7F7F" fill-opacity="0.08"/>
  <circle cx="270" cy="350" r="1" fill="#2F7F7F" fill-opacity="0.08"/>
  <circle cx="290" cy="350" r="1" fill="#2F7F7F" fill-opacity="0.08"/>
  <circle cx="310" cy="350" r="1" fill="#2F7F7F" fill-opacity="0.08"/>
  <circle cx="330" cy="350" r="1" fill="#2F7F7F" fill-opacity="0.08"/>
  <circle cx="350" cy="350" r="1" fill="#2F7F7F" fill-opacity="0.20"/>
  <circle cx="370" cy="350" r="1" fill="#2F7F7F" fill-opacity="0.08"/>
  <circle cx="390" cy="350" r="1" fill="#2F7F7F" fill-opacity="0.08"/>
  <circle cx="10" cy="370" r="1" fill="#2F7F7F" fill-opacity="0.08"/>
  <circle cx="30" cy="370" r="1" fill="#2F7F7F" fill-opacity="0.08"/>
  <circle cx="50" cy="370" r="1" fill="#2F7F7F" fill-opacity="0.08"/>
  <circle cx="70" cy="370" r="1" fill="#2F7F7F" fill-opacity="0.08"/>
  <circle cx="90" cy="370" r="1" fill="#2F7F7F" fill-opacity="0.20"/>
  <circle cx="110" cy="370" r="1" fill="#2F7F7F" fill-opacity="0.08"/>
  <circle cx="130" cy="370" r="1" fill="#2F7F7F" fill-opacity="0.08"/>
  <circle cx="150" cy="370" r="1" fill="#2F7F7F" fill-opacity="0.08"/>
  <circle cx="170" cy="370" r="1" fill="#2F7F7F" fill-opacity="0.08"/>
  <circle cx="190" cy="370" r="1" fill="#2F7F7F" fill-opacity="0.08"/>
  <circle cx="210" cy="370" r="1" fill="#2F7F7F" fill-opacity="0.08"/>
  <circle cx="230" cy="370" r="1" fill="#2F7F7F" fill-opacity="0.20"/>
  <circle cx="250" cy="370" r="1" fill="#2F7F7F" fill-opacity="0.08"/>
  <circle cx="270" cy="370" r="1" fill="#2F7F7F" fill-opacity="0.08"/>
  <circle cx="290" cy="370" r="1" fill="#2F7F7F" fill-opacity="0.08"/>
  <circle cx="310" cy="370" r="1" fill="#2F7F7F" fill-opacity="0.08"/>
  <circle cx="330" cy="370" r="1" fill="#2F7F7F" fill-opacity="0.08"/>
  <circle cx="350" cy="370" r="1" fill="#2F7F7F" fill-opacity="0.08"/>
  <circle cx="370" cy="370" r="1" fill="#2F7F7F" fill-opacity="0.20"/>
  <circle cx="390" cy="370" r="1" fill="#2F7F7F" fill-opacity="0.08"/>
  <circle cx="10" cy="390" r="1" fill="#2F7F7F" fill-opacity="0.08"/>
  <circle cx="30" cy="390" r="1" fill="#2F7F7F" fill-opacity="0.08"/>
  <circle cx="50" cy="390" r="1" fill="#2F7F7F" fill-opacity="0.08"/>
  <circle cx="70" cy="390" r="1" fill="#2F7F7F" fill-opacity="0.08"/>
  <circle cx="90" cy="390" r="1" fill="#2F7F7F" fill-opacity="0.08"/>
  <circle cx="110" cy="390" r="1" fill="#2F7F7F" fill-opacity="0.20"/>
  <circle cx="130" cy="390" r="1" fill="#2F7F7F" fill-opacity="0.08"/>
  <circle cx="150" cy="390" r="1" fill="#2F7F7F" fill-opacity="0.08"/>
  <circle cx="170" cy="390" r="1" fill="#2F7F7F" fill-opacity="0.08"/>
  <circle cx="190" cy="390" r="1" fill="#2F7F7F" fill-opacity="0.08"/>
  <circle cx="210" cy="390" r="1" fill="#2F7F7F" fill-opacity="0.08"/>
  <circle cx="230" cy="390" r="1" fill="#2F7F7F" fill-opacity="0.08"/>
  <circle cx="250" cy="390" r="1" fill="#2F7F7F" fill-opacity="0.20"/>
  <circle cx="270" cy="390" r="1" fill="#2F7F7F" fill-opacity="0.08"/>
  <circle cx="290" cy="390" r="1" fill="#2F7F7F" fill-opacity="0.08"/>
  <circle cx="310" cy="390" r="1" fill="#2F7F7F" fill-opacity="0.08"/>
  <circle cx="330" cy="390" r="1" fill="#2F7F7F" fill-opacity="0.08"/>
  <circle cx="350" cy="390" r="1" fill="#2F7F7F" fill-opacity="0.08"/>
  <circle cx="370" cy="390" r="1" fill="#2F7F7F" fill-opacity="0.08"/>
  <circle cx="390" cy="390" r="1" fill="#2F7F7F" fill-opacity="0.20"/>
</svg>
